<mxfile host="Electron" modified="2024-01-28T05:17:10.398Z" agent="Mozilla/5.0 (Windows NT 10.0; Win64; x64) AppleWebKit/537.36 (KHTML, like Gecko) draw.io/23.0.2 Chrome/120.0.6099.109 Electron/28.1.0 Safari/537.36" etag="e0oSo2LnSuLVIQqNB09T" version="23.0.2" type="device">
  <diagram name="Page-1" id="TpIKDbrmnBRcL9gOOZ6W">
    <mxGraphModel dx="2074" dy="836" grid="1" gridSize="10" guides="1" tooltips="1" connect="1" arrows="1" fold="1" page="1" pageScale="1" pageWidth="1400" pageHeight="850" math="0" shadow="0">
      <root>
        <mxCell id="0" />
        <mxCell id="1" parent="0" />
        <mxCell id="cTdrVMJFXF3CcCi_hRsK-1" value="START" style="strokeWidth=2;html=1;shape=mxgraph.flowchart.start_1;whiteSpace=wrap;" vertex="1" parent="1">
          <mxGeometry x="620" y="20" width="100" height="60" as="geometry" />
        </mxCell>
        <mxCell id="cTdrVMJFXF3CcCi_hRsK-43" style="edgeStyle=orthogonalEdgeStyle;rounded=0;orthogonalLoop=1;jettySize=auto;html=1;exitX=0.5;exitY=1;exitDx=0;exitDy=0;exitPerimeter=0;entryX=0.5;entryY=0;entryDx=0;entryDy=0;" edge="1" parent="1" source="cTdrVMJFXF3CcCi_hRsK-2" target="cTdrVMJFXF3CcCi_hRsK-12">
          <mxGeometry relative="1" as="geometry" />
        </mxCell>
        <mxCell id="cTdrVMJFXF3CcCi_hRsK-44" style="edgeStyle=orthogonalEdgeStyle;rounded=0;orthogonalLoop=1;jettySize=auto;html=1;exitX=0.5;exitY=1;exitDx=0;exitDy=0;exitPerimeter=0;entryX=0.5;entryY=0;entryDx=0;entryDy=0;" edge="1" parent="1" source="cTdrVMJFXF3CcCi_hRsK-2" target="cTdrVMJFXF3CcCi_hRsK-14">
          <mxGeometry relative="1" as="geometry">
            <Array as="points">
              <mxPoint x="670" y="495" />
              <mxPoint x="1250" y="495" />
            </Array>
          </mxGeometry>
        </mxCell>
        <mxCell id="cTdrVMJFXF3CcCi_hRsK-46" style="edgeStyle=orthogonalEdgeStyle;rounded=0;orthogonalLoop=1;jettySize=auto;html=1;exitX=0.5;exitY=1;exitDx=0;exitDy=0;exitPerimeter=0;" edge="1" parent="1" source="cTdrVMJFXF3CcCi_hRsK-2" target="cTdrVMJFXF3CcCi_hRsK-13">
          <mxGeometry relative="1" as="geometry" />
        </mxCell>
        <mxCell id="cTdrVMJFXF3CcCi_hRsK-57" style="edgeStyle=orthogonalEdgeStyle;rounded=0;orthogonalLoop=1;jettySize=auto;html=1;entryX=0.5;entryY=0;entryDx=0;entryDy=0;" edge="1" parent="1" target="cTdrVMJFXF3CcCi_hRsK-47">
          <mxGeometry relative="1" as="geometry">
            <mxPoint x="710" y="495" as="sourcePoint" />
            <mxPoint x="910" y="605" as="targetPoint" />
          </mxGeometry>
        </mxCell>
        <mxCell id="cTdrVMJFXF3CcCi_hRsK-2" value="Type of Project" style="strokeWidth=2;html=1;shape=mxgraph.flowchart.decision;whiteSpace=wrap;" vertex="1" parent="1">
          <mxGeometry x="620" y="370" width="100" height="100" as="geometry" />
        </mxCell>
        <mxCell id="cTdrVMJFXF3CcCi_hRsK-12" value="Library" style="shape=parallelogram;html=1;strokeWidth=2;perimeter=parallelogramPerimeter;whiteSpace=wrap;rounded=1;arcSize=12;size=0.23;" vertex="1" parent="1">
          <mxGeometry x="60" y="520" width="100" height="60" as="geometry" />
        </mxCell>
        <mxCell id="cTdrVMJFXF3CcCi_hRsK-13" value="Application" style="shape=parallelogram;html=1;strokeWidth=2;perimeter=parallelogramPerimeter;whiteSpace=wrap;rounded=1;arcSize=12;size=0.23;" vertex="1" parent="1">
          <mxGeometry x="380" y="520" width="100" height="60" as="geometry" />
        </mxCell>
        <mxCell id="cTdrVMJFXF3CcCi_hRsK-14" value="API" style="shape=parallelogram;html=1;strokeWidth=2;perimeter=parallelogramPerimeter;whiteSpace=wrap;rounded=1;arcSize=12;size=0.23;" vertex="1" parent="1">
          <mxGeometry x="1200" y="520" width="100" height="60" as="geometry" />
        </mxCell>
        <mxCell id="cTdrVMJFXF3CcCi_hRsK-32" style="edgeStyle=orthogonalEdgeStyle;rounded=0;orthogonalLoop=1;jettySize=auto;html=1;entryX=1;entryY=0.5;entryDx=0;entryDy=0;" edge="1" parent="1" source="cTdrVMJFXF3CcCi_hRsK-21" target="cTdrVMJFXF3CcCi_hRsK-31">
          <mxGeometry relative="1" as="geometry" />
        </mxCell>
        <mxCell id="cTdrVMJFXF3CcCi_hRsK-33" value="Yes" style="edgeLabel;html=1;align=center;verticalAlign=middle;resizable=0;points=[];" vertex="1" connectable="0" parent="cTdrVMJFXF3CcCi_hRsK-32">
          <mxGeometry x="-0.0354" y="-2" relative="1" as="geometry">
            <mxPoint as="offset" />
          </mxGeometry>
        </mxCell>
        <mxCell id="cTdrVMJFXF3CcCi_hRsK-21" value="Include&amp;nbsp;&lt;br&gt;Testing" style="strokeWidth=2;html=1;shape=mxgraph.flowchart.decision;whiteSpace=wrap;" vertex="1" parent="1">
          <mxGeometry x="620" y="230" width="100" height="100" as="geometry" />
        </mxCell>
        <mxCell id="cTdrVMJFXF3CcCi_hRsK-24" value="" style="edgeStyle=orthogonalEdgeStyle;rounded=0;orthogonalLoop=1;jettySize=auto;html=1;entryX=0.5;entryY=0;entryDx=0;entryDy=0;entryPerimeter=0;" edge="1" parent="1" source="cTdrVMJFXF3CcCi_hRsK-1" target="cTdrVMJFXF3CcCi_hRsK-6">
          <mxGeometry relative="1" as="geometry">
            <mxPoint x="670" y="80" as="sourcePoint" />
            <mxPoint x="670" y="200" as="targetPoint" />
          </mxGeometry>
        </mxCell>
        <mxCell id="cTdrVMJFXF3CcCi_hRsK-41" style="edgeStyle=orthogonalEdgeStyle;rounded=0;orthogonalLoop=1;jettySize=auto;html=1;exitX=0.5;exitY=1;exitDx=0;exitDy=0;" edge="1" parent="1" source="cTdrVMJFXF3CcCi_hRsK-6" target="cTdrVMJFXF3CcCi_hRsK-21">
          <mxGeometry relative="1" as="geometry" />
        </mxCell>
        <mxCell id="cTdrVMJFXF3CcCi_hRsK-6" value="Name&lt;br&gt;of &lt;br&gt;Project" style="shape=parallelogram;html=1;strokeWidth=2;perimeter=parallelogramPerimeter;whiteSpace=wrap;rounded=1;arcSize=12;size=0.23;" vertex="1" parent="1">
          <mxGeometry x="620" y="130" width="100" height="60" as="geometry" />
        </mxCell>
        <mxCell id="cTdrVMJFXF3CcCi_hRsK-31" value="Add Jest" style="rounded=1;whiteSpace=wrap;html=1;absoluteArcSize=1;arcSize=14;strokeWidth=2;" vertex="1" parent="1">
          <mxGeometry x="370" y="240" width="90" height="80" as="geometry" />
        </mxCell>
        <mxCell id="cTdrVMJFXF3CcCi_hRsK-35" style="edgeStyle=orthogonalEdgeStyle;rounded=0;orthogonalLoop=1;jettySize=auto;html=1;exitX=1;exitY=0.5;exitDx=0;exitDy=0;exitPerimeter=0;entryX=1;entryY=0.5;entryDx=0;entryDy=0;entryPerimeter=0;" edge="1" parent="1" source="cTdrVMJFXF3CcCi_hRsK-21" target="cTdrVMJFXF3CcCi_hRsK-2">
          <mxGeometry relative="1" as="geometry">
            <Array as="points">
              <mxPoint x="880" y="280" />
              <mxPoint x="880" y="420" />
            </Array>
          </mxGeometry>
        </mxCell>
        <mxCell id="cTdrVMJFXF3CcCi_hRsK-38" value="NO" style="edgeLabel;html=1;align=center;verticalAlign=middle;resizable=0;points=[];" vertex="1" connectable="0" parent="cTdrVMJFXF3CcCi_hRsK-35">
          <mxGeometry x="0.0022" y="-1" relative="1" as="geometry">
            <mxPoint as="offset" />
          </mxGeometry>
        </mxCell>
        <mxCell id="cTdrVMJFXF3CcCi_hRsK-37" style="edgeStyle=orthogonalEdgeStyle;rounded=0;orthogonalLoop=1;jettySize=auto;html=1;entryX=0;entryY=0.5;entryDx=0;entryDy=0;entryPerimeter=0;" edge="1" parent="1" source="cTdrVMJFXF3CcCi_hRsK-31" target="cTdrVMJFXF3CcCi_hRsK-2">
          <mxGeometry relative="1" as="geometry">
            <Array as="points">
              <mxPoint x="410" y="420" />
            </Array>
          </mxGeometry>
        </mxCell>
        <mxCell id="cTdrVMJFXF3CcCi_hRsK-47" value="CDK" style="shape=parallelogram;html=1;strokeWidth=2;perimeter=parallelogramPerimeter;whiteSpace=wrap;rounded=1;arcSize=12;size=0.23;" vertex="1" parent="1">
          <mxGeometry x="870" y="520" width="100" height="60" as="geometry" />
        </mxCell>
        <mxCell id="cTdrVMJFXF3CcCi_hRsK-68" style="edgeStyle=orthogonalEdgeStyle;rounded=0;orthogonalLoop=1;jettySize=auto;html=1;entryX=0.5;entryY=0;entryDx=0;entryDy=0;" edge="1" parent="1" source="cTdrVMJFXF3CcCi_hRsK-58" target="cTdrVMJFXF3CcCi_hRsK-65">
          <mxGeometry relative="1" as="geometry">
            <Array as="points">
              <mxPoint x="335" y="820" />
            </Array>
          </mxGeometry>
        </mxCell>
        <mxCell id="cTdrVMJFXF3CcCi_hRsK-69" value="Public" style="edgeLabel;html=1;align=center;verticalAlign=middle;resizable=0;points=[];" vertex="1" connectable="0" parent="cTdrVMJFXF3CcCi_hRsK-68">
          <mxGeometry x="-0.3333" relative="1" as="geometry">
            <mxPoint as="offset" />
          </mxGeometry>
        </mxCell>
        <mxCell id="cTdrVMJFXF3CcCi_hRsK-58" value="Library Type&lt;br&gt;Private or&amp;nbsp;&lt;br&gt;Public" style="strokeWidth=2;html=1;shape=mxgraph.flowchart.decision;whiteSpace=wrap;" vertex="1" parent="1">
          <mxGeometry x="60" y="770" width="100" height="100" as="geometry" />
        </mxCell>
        <mxCell id="cTdrVMJFXF3CcCi_hRsK-71" style="edgeStyle=orthogonalEdgeStyle;rounded=0;orthogonalLoop=1;jettySize=auto;html=1;" edge="1" parent="1" source="cTdrVMJFXF3CcCi_hRsK-62" target="cTdrVMJFXF3CcCi_hRsK-66">
          <mxGeometry relative="1" as="geometry" />
        </mxCell>
        <mxCell id="cTdrVMJFXF3CcCi_hRsK-72" value="Github" style="edgeLabel;html=1;align=center;verticalAlign=middle;resizable=0;points=[];" vertex="1" connectable="0" parent="cTdrVMJFXF3CcCi_hRsK-71">
          <mxGeometry x="-0.3333" y="1" relative="1" as="geometry">
            <mxPoint as="offset" />
          </mxGeometry>
        </mxCell>
        <mxCell id="cTdrVMJFXF3CcCi_hRsK-73" style="edgeStyle=orthogonalEdgeStyle;rounded=0;orthogonalLoop=1;jettySize=auto;html=1;entryX=0;entryY=0.5;entryDx=0;entryDy=0;" edge="1" parent="1" source="cTdrVMJFXF3CcCi_hRsK-62" target="cTdrVMJFXF3CcCi_hRsK-65">
          <mxGeometry relative="1" as="geometry" />
        </mxCell>
        <mxCell id="cTdrVMJFXF3CcCi_hRsK-74" value="NPMJS" style="edgeLabel;html=1;align=center;verticalAlign=middle;resizable=0;points=[];" vertex="1" connectable="0" parent="cTdrVMJFXF3CcCi_hRsK-73">
          <mxGeometry x="-0.6351" y="-1" relative="1" as="geometry">
            <mxPoint as="offset" />
          </mxGeometry>
        </mxCell>
        <mxCell id="cTdrVMJFXF3CcCi_hRsK-62" value="GitHub &lt;br&gt;or&lt;br&gt;NPMJS" style="strokeWidth=2;html=1;shape=mxgraph.flowchart.decision;whiteSpace=wrap;" vertex="1" parent="1">
          <mxGeometry x="60" y="990" width="100" height="100" as="geometry" />
        </mxCell>
        <mxCell id="cTdrVMJFXF3CcCi_hRsK-63" style="edgeStyle=orthogonalEdgeStyle;rounded=0;orthogonalLoop=1;jettySize=auto;html=1;entryX=0.5;entryY=0;entryDx=0;entryDy=0;entryPerimeter=0;" edge="1" parent="1" source="cTdrVMJFXF3CcCi_hRsK-58" target="cTdrVMJFXF3CcCi_hRsK-62">
          <mxGeometry relative="1" as="geometry" />
        </mxCell>
        <mxCell id="cTdrVMJFXF3CcCi_hRsK-64" value="Private" style="edgeLabel;html=1;align=center;verticalAlign=middle;resizable=0;points=[];" vertex="1" connectable="0" parent="cTdrVMJFXF3CcCi_hRsK-63">
          <mxGeometry x="-0.2" y="1" relative="1" as="geometry">
            <mxPoint as="offset" />
          </mxGeometry>
        </mxCell>
        <mxCell id="cTdrVMJFXF3CcCi_hRsK-65" value="Publish to&lt;br&gt;NPMJS" style="rounded=1;whiteSpace=wrap;html=1;absoluteArcSize=1;arcSize=14;strokeWidth=2;" vertex="1" parent="1">
          <mxGeometry x="290" y="1000" width="90" height="80" as="geometry" />
        </mxCell>
        <mxCell id="cTdrVMJFXF3CcCi_hRsK-77" style="edgeStyle=orthogonalEdgeStyle;rounded=0;orthogonalLoop=1;jettySize=auto;html=1;" edge="1" parent="1" source="cTdrVMJFXF3CcCi_hRsK-66" target="cTdrVMJFXF3CcCi_hRsK-75">
          <mxGeometry relative="1" as="geometry" />
        </mxCell>
        <mxCell id="cTdrVMJFXF3CcCi_hRsK-66" value="Publish to&lt;br&gt;GitHub" style="rounded=1;whiteSpace=wrap;html=1;absoluteArcSize=1;arcSize=14;strokeWidth=2;" vertex="1" parent="1">
          <mxGeometry x="65" y="1150" width="90" height="80" as="geometry" />
        </mxCell>
        <mxCell id="cTdrVMJFXF3CcCi_hRsK-78" style="edgeStyle=orthogonalEdgeStyle;rounded=0;orthogonalLoop=1;jettySize=auto;html=1;entryX=0.5;entryY=0;entryDx=0;entryDy=0;" edge="1" parent="1" source="cTdrVMJFXF3CcCi_hRsK-75" target="cTdrVMJFXF3CcCi_hRsK-76">
          <mxGeometry relative="1" as="geometry" />
        </mxCell>
        <mxCell id="cTdrVMJFXF3CcCi_hRsK-75" value="Copy Files" style="rounded=1;whiteSpace=wrap;html=1;absoluteArcSize=1;arcSize=14;strokeWidth=2;" vertex="1" parent="1">
          <mxGeometry x="65" y="1290" width="90" height="80" as="geometry" />
        </mxCell>
        <mxCell id="cTdrVMJFXF3CcCi_hRsK-76" value="Install Deps" style="rounded=1;whiteSpace=wrap;html=1;absoluteArcSize=1;arcSize=14;strokeWidth=2;" vertex="1" parent="1">
          <mxGeometry x="65" y="1430" width="90" height="80" as="geometry" />
        </mxCell>
        <mxCell id="cTdrVMJFXF3CcCi_hRsK-79" value="Publish &lt;br&gt;Library &lt;br&gt;to Registry" style="strokeWidth=2;html=1;shape=mxgraph.flowchart.decision;whiteSpace=wrap;" vertex="1" parent="1">
          <mxGeometry x="60" y="630" width="100" height="100" as="geometry" />
        </mxCell>
        <mxCell id="cTdrVMJFXF3CcCi_hRsK-80" style="edgeStyle=orthogonalEdgeStyle;rounded=0;orthogonalLoop=1;jettySize=auto;html=1;entryX=0.5;entryY=0;entryDx=0;entryDy=0;entryPerimeter=0;" edge="1" parent="1" source="cTdrVMJFXF3CcCi_hRsK-12" target="cTdrVMJFXF3CcCi_hRsK-79">
          <mxGeometry relative="1" as="geometry" />
        </mxCell>
        <mxCell id="cTdrVMJFXF3CcCi_hRsK-81" style="edgeStyle=orthogonalEdgeStyle;rounded=0;orthogonalLoop=1;jettySize=auto;html=1;entryX=0.5;entryY=0;entryDx=0;entryDy=0;entryPerimeter=0;" edge="1" parent="1" source="cTdrVMJFXF3CcCi_hRsK-79" target="cTdrVMJFXF3CcCi_hRsK-58">
          <mxGeometry relative="1" as="geometry" />
        </mxCell>
        <mxCell id="cTdrVMJFXF3CcCi_hRsK-82" value="Yes" style="edgeLabel;html=1;align=center;verticalAlign=middle;resizable=0;points=[];" vertex="1" connectable="0" parent="cTdrVMJFXF3CcCi_hRsK-81">
          <mxGeometry x="-0.3" y="3" relative="1" as="geometry">
            <mxPoint as="offset" />
          </mxGeometry>
        </mxCell>
        <mxCell id="cTdrVMJFXF3CcCi_hRsK-83" style="edgeStyle=orthogonalEdgeStyle;rounded=0;orthogonalLoop=1;jettySize=auto;html=1;entryX=0;entryY=0.5;entryDx=0;entryDy=0;exitX=0;exitY=0.5;exitDx=0;exitDy=0;exitPerimeter=0;" edge="1" parent="1" source="cTdrVMJFXF3CcCi_hRsK-79" target="cTdrVMJFXF3CcCi_hRsK-75">
          <mxGeometry relative="1" as="geometry">
            <mxPoint x="65" y="735.48" as="sourcePoint" />
            <mxPoint x="20" y="1344.52" as="targetPoint" />
          </mxGeometry>
        </mxCell>
      </root>
    </mxGraphModel>
  </diagram>
</mxfile>
